HIERARCHY
ROOT hip
{
  OFFSET 127.108 83.7385 -19.4113
  CHANNELS 6 Xposition Yposition Zposition Zrotation Xrotation Yrotation
  JOINT abdomen
  {
    OFFSET 0 20.6881 -0.73152
    CHANNELS 3 Zrotation Xrotation Yrotation
    JOINT chest
    {
      OFFSET 0 11.7043 -0.48768
      CHANNELS 3 Zrotation Xrotation Yrotation
      JOINT neck
      {
        OFFSET 0 22.1894 -2.19456
        CHANNELS 3 Zrotation Xrotation Yrotation
        JOINT head
        {
          OFFSET -0.24384 7.07133 1.2192
          CHANNELS 3 Zrotation Xrotation Yrotation
          JOINT leftEye
          {
            OFFSET 4.14528 8.04674 8.04672
            CHANNELS 3 Zrotation Xrotation Yrotation
            End Site
            {
              OFFSET 1 0 0
            }
          }
          JOINT rightEye
          {
            OFFSET -3.6576 8.04674 8.04672
            CHANNELS 3 Zrotation Xrotation Yrotation
            End Site
            {
              OFFSET 1 0 0
            }
          }
        }
      }
      JOINT rCollar
      {
        OFFSET -2.68224 19.2634 -4.8768
        CHANNELS 3 Zrotation Xrotation Yrotation
        JOINT rShldr
        {
          OFFSET -8.77824 -1.95073 1.46304
          CHANNELS 3 Zrotation Xrotation Yrotation
          JOINT rForeArm
          {
            OFFSET -28.1742 -1.7115 0.48768
            CHANNELS 3 Zrotation Xrotation Yrotation
            JOINT rHand
            {
              OFFSET -22.5879 0.773209 7.07136
              CHANNELS 3 Zrotation Xrotation Yrotation
              JOINT rThumb1
              {
                OFFSET -1.2192 -0.487915 3.41376
                CHANNELS 3 Zrotation Xrotation Yrotation
                JOINT rThumb2
                {
                  OFFSET -3.37035 -0.52449 3.41376
                  CHANNELS 3 Zrotation Xrotation Yrotation
                  End Site
                  {
                    OFFSET -1.78271 -1.18214 1.43049
                  }
                }
              }
              JOINT rIndex1
              {
                OFFSET -7.75947 0.938293 5.60832
                CHANNELS 3 Zrotation Xrotation Yrotation
                JOINT rIndex2
                {
                  OFFSET -2.54057 -0.884171 1.56538
                  CHANNELS 3 Zrotation Xrotation Yrotation
                  End Site
                  {
                    OFFSET -1.62519 -0.234802 1.16502
                  }
                }
              }
              JOINT rMid1
              {
                OFFSET -8.24714 1.18213 3.41376
                CHANNELS 3 Zrotation Xrotation Yrotation
                JOINT rMid2
                {
                  OFFSET -3.10165 -0.590103 1.0647
                  CHANNELS 3 Zrotation Xrotation Yrotation
                  End Site
                  {
                    OFFSET -2.48547 -0.328903 0.83742
                  }
                }
              }
              JOINT rRing1
              {
                OFFSET -8.82822 0.546677 1.51678
                CHANNELS 3 Zrotation Xrotation Yrotation
                JOINT rRing2
                {
                  OFFSET -2.60934 -0.819778 -0.0198488
                  CHANNELS 3 Zrotation Xrotation Yrotation
                  End Site
                  {
                    OFFSET -2.33842 -0.294052 0.168128
                  }
                }
              }
              JOINT rPinky1
              {
                OFFSET -8.27202 -0.0477905 -0.4584
                CHANNELS 3 Zrotation Xrotation Yrotation
                JOINT rPinky2
                {
                  OFFSET -1.82734 -0.647385 -0.700984
                  CHANNELS 3 Zrotation Xrotation Yrotation
                  End Site
                  {
                    OFFSET -1.69225 -0.51767 -0.607171
                  }
                }
              }
            }
          }
        }
      }
      JOINT lCollar
      {
        OFFSET 2.68224 19.2634 -4.8768
        CHANNELS 3 Zrotation Xrotation Yrotation
        JOINT lShldr
        {
          OFFSET 8.77824 -1.95073 1.46304
          CHANNELS 3 Zrotation Xrotation Yrotation
          JOINT lForeArm
          {
            OFFSET 28.1742 -1.7115 0.48768
            CHANNELS 3 Zrotation Xrotation Yrotation
            JOINT lHand
            {
              OFFSET 22.5879 0.773209 7.07136
              CHANNELS 3 Zrotation Xrotation Yrotation
              JOINT lThumb1
              {
                OFFSET 1.2192 -0.487915 3.41376
                CHANNELS 3 Zrotation Xrotation Yrotation
                JOINT lThumb2
                {
                  OFFSET 3.37035 -0.52449 3.41376
                  CHANNELS 3 Zrotation Xrotation Yrotation
                  End Site
                  {
                    OFFSET 1.78271 -1.18214 1.43049
                  }
                }
              }
              JOINT lIndex1
              {
                OFFSET 7.75947 0.938293 5.60832
                CHANNELS 3 Zrotation Xrotation Yrotation
                JOINT lIndex2
                {
                  OFFSET 2.54057 -0.884171 1.56538
                  CHANNELS 3 Zrotation Xrotation Yrotation
                  End Site
                  {
                    OFFSET 1.62519 -0.234802 1.16502
                  }
                }
              }
              JOINT lMid1
              {
                OFFSET 8.24714 1.18213 3.41376
                CHANNELS 3 Zrotation Xrotation Yrotation
                JOINT lMid2
                {
                  OFFSET 3.10165 -0.590103 1.0647
                  CHANNELS 3 Zrotation Xrotation Yrotation
                  End Site
                  {
                    OFFSET 2.48547 -0.328903 0.83742
                  }
                }
              }
              JOINT lRing1
              {
                OFFSET 8.82822 0.546677 1.51678
                CHANNELS 3 Zrotation Xrotation Yrotation
                JOINT lRing2
                {
                  OFFSET 2.60934 -0.819778 -0.0198488
                  CHANNELS 3 Zrotation Xrotation Yrotation
                  End Site
                  {
                    OFFSET 2.33842 -0.294052 0.168128
                  }
                }
              }
              JOINT lPinky1
              {
                OFFSET 8.27202 -0.0477905 -0.4584
                CHANNELS 3 Zrotation Xrotation Yrotation
                JOINT lPinky2
                {
                  OFFSET 1.82734 -0.647385 -0.700984
                  CHANNELS 3 Zrotation Xrotation Yrotation
                  End Site
                  {
                    OFFSET 1.69225 -0.51767 -0.607171
                  }
                }
              }
            }
          }
        }
      }
    }
  }
  JOINT rButtock
  {
    OFFSET -8.77824 4.35084 1.2192
    CHANNELS 3 Zrotation Xrotation Yrotation
    JOINT rThigh
    {
      OFFSET 0 -1.70687 -2.19456
      CHANNELS 3 Zrotation Xrotation Yrotation
      JOINT rShin
      {
        OFFSET 0 -36.8199 0.73152
        CHANNELS 3 Zrotation Xrotation Yrotation
        JOINT rFoot
        {
          OFFSET 0.73152 -45.1104 -5.12064
          CHANNELS 3 Zrotation Xrotation Yrotation
          End Site
          {
            OFFSET -1.1221 -3.69964 12.103
          }
        }
      }
    }
  }
  JOINT lButtock
  {
    OFFSET 8.77824 4.35084 1.2192
    CHANNELS 3 Zrotation Xrotation Yrotation
    JOINT lThigh
    {
      OFFSET 0 -1.70687 -2.19456
      CHANNELS 3 Zrotation Xrotation Yrotation
      JOINT lShin
      {
        OFFSET 0 -36.8199 0.73152
        CHANNELS 3 Zrotation Xrotation Yrotation
        JOINT lFoot
        {
          OFFSET -0.73152 -45.1104 -5.12064
          CHANNELS 3 Zrotation Xrotation Yrotation
          End Site
          {
            OFFSET 1.1221 -3.69964 12.103
          }
        }
      }
    }
  }
}
MOTION
Frames:	8
Frame Time:	0.00833333
148.374 85.3326 17.0286 -0.888074 0.000480537 0.0163024 1.16874 -0.00493879 0.0322835 0.322752 -0.00472401 0.0559148 -3.9157e-016 -1.59028e-015 2.60905e-016 -9.87711e-016 3.18055e-015 8.18434e-016 -0 0 0 -0 0 0 -1.50458e-016 -6.60027e-018 2.48481e-016 -2.01891e-017 -4.96962e-016 3.77691e-015 -5.86912e-014 1.37161e-014 7.31528e-014 -6.87062e-013 -3.47625e-014 5.47055e-013 -1.61629e-012 -4.0945e-014 1.34219e-012 -2.80008e-012 -6.99722e-014 2.29477e-012 -1.61095e-012 -3.77691e-014 1.32947e-012 7.73091 5.47488 0.417314 -1.61433e-012 -3.97569e-014 1.33583e-012 2.90554 0.965183 0.102902 -1.60681e-012 -4.00551e-014 1.33106e-012 10.2786 0.731801 0.0259123 -1.61632e-012 -4.17448e-014 1.32947e-012 2.22167 -0.733487 -0.20892 -4.83464e-017 -4.46489e-018 4.96962e-017 -6.73723e-015 -3.04389e-016 1.98785e-015 -6.04305e-014 -1.98785e-014 5.08889e-014 -6.7265e-013 -7.28049e-015 5.69319e-013 -1.59024e-012 -5.75404e-014 1.31993e-012 -2.74323e-012 -1.04958e-013 2.30193e-012 -1.59465e-012 -5.48646e-014 1.32629e-012 -7.73091 5.47488 -0.417314 -1.59142e-012 -5.73494e-014 1.32947e-012 -2.90554 0.965183 -0.102902 -1.60268e-012 -5.70512e-014 1.33265e-012 -10.2786 0.731801 -0.0259123 -1.59286e-012 -5.80451e-014 1.33901e-012 -2.22167 -0.733487 0.20892 -2.03217e-016 0 -3.88251e-019 1.35591 -5.8465 -0.122721 0.00113146 5.03398 0.0413993 -0.480922 0.811097 0.0710964 2.03217e-016 0 3.88251e-019 0.426482 -1.91991 0.00997125 0.00898914 -2.0786 0.0740803 0.459223 3.99698 -0.132479 
143.277 83.9622 12.2379 1.92576 -2.75351 -23.2892 0.343946 -0.100644 3.33346 0.227017 -1.47258 1.00468 -0.327294 3.82038 4.13611 0.00530142 -7.24721 8.30526 -0 0 0 -0 0 0 4.36822e-014 9.8824e-014 5.75808e-014 23.785 5.32851 -3.30628 -5.86572 -3.1009 8.64182 0.00451875 -1.63027 -0.228846 -6.10034e-010 -7.47013e-011 7.57565e-010 -1.05607e-009 -1.30993e-010 1.3106e-009 -6.10029e-010 -7.46998e-011 7.57556e-010 7.73091 5.47488 0.417314 -6.10033e-010 -7.47005e-011 7.57563e-010 2.90554 0.965183 0.102902 -6.10025e-010 -7.47014e-011 7.57558e-010 10.2786 0.731801 0.0259123 -6.10036e-010 -7.47024e-011 7.57559e-010 2.22167 -0.733487 -0.20892 4.37409e-014 9.8825e-014 5.73684e-014 -24.1906 6.52418 1.22864 4.61987 -2.18465 -7.1217 -0.059574 5.42774 -0.750579 5.31144e-011 -7.95144e-011 -1.08486e-009 7.55137e-011 -1.34264e-010 -1.87574e-009 5.31108e-011 -7.9512e-011 -1.08486e-009 -7.73091 5.47488 -0.417314 5.31155e-011 -7.95158e-011 -1.08486e-009 -2.90554 0.965183 -0.102902 5.31037e-011 -7.95139e-011 -1.08485e-009 -10.2786 0.731801 -0.0259123 5.3113e-011 -7.95149e-011 -1.08485e-009 -2.22167 -0.733487 0.20892 -2.03217e-016 0 -3.88251e-019 -0.412797 -8.499 -0.567966 0.0208207 10.6845 0.146772 -0.863482 -4.3087 -3.22391 2.03217e-016 0 3.88251e-019 0.0863893 -5.73586 0.126144 -0.00777459 6.33554 -0.0725538 0.526792 -2.66958 0.643668 
143.267 83.9567 12.1624 2.78604 -4.2124 -48.0706 -0.520475 -0.195769 6.80169 0.170966 -3.03054 2.00313 -1.29288 7.78705 8.56724 2.35368 -14.4007 17.5172 -0 0 0 -0 0 0 9.25871e-014 2.09305e-013 1.22414e-013 49.6047 11.0881 -6.89624 -11.0943 -6.17236 17.9083 -0.00562166 -3.42958 -0.482103 -1.29759e-009 -1.75347e-010 1.60403e-009 -2.24634e-009 -3.07104e-010 2.7751e-009 -1.29759e-009 -1.75347e-010 1.60403e-009 7.73091 5.47488 0.417314 -1.29759e-009 -1.75346e-010 1.60404e-009 2.90554 0.965183 0.102902 -1.29758e-009 -1.75348e-010 1.60403e-009 10.2786 0.731801 0.0259123 -1.2976e-009 -1.75348e-010 1.60403e-009 2.22167 -0.733487 -0.20892 9.25993e-014 2.09305e-013 1.22187e-013 -50.0595 13.3267 2.60656 8.89613 -4.36455 -14.6511 0.0351437 11.1991 -1.57194 9.92486e-011 -1.58536e-010 -2.29273e-009 1.37149e-010 -2.67151e-010 -3.96396e-009 9.92459e-011 -1.58534e-010 -2.29272e-009 -7.73091 5.47488 -0.417314 9.92523e-011 -1.58539e-010 -2.29273e-009 -2.90554 0.965183 -0.102902 9.92399e-011 -1.58536e-010 -2.29272e-009 -10.2786 0.731801 -0.0259123 9.92484e-011 -1.58537e-010 -2.29272e-009 -2.22167 -0.733487 0.20892 -2.03217e-016 0 -3.88251e-019 -2.33869 -11.3141 -1.03415 0.0178512 16.6658 0.264198 -1.91286 -9.6742 -6.7714 2.03217e-016 0 3.88251e-019 -0.266803 -9.76383 0.265456 0.022487 15.2245 -0.234908 0.800501 -9.71587 1.49851 
143.235 83.9563 12.0831 2.65838 -3.09184 -70.0434 -1.27275 -0.288179 9.93594 0.181689 -4.40332 2.90982 -2.64943 11.2202 12.6259 6.42485 -19.8674 26.3959 -0 0 0 -0 0 0 1.31347e-013 2.96485e-013 1.72245e-013 73.2507 15.7685 -10.2662 -14.8721 -8.45782 26.1933 -0.0256333 -4.8905 -0.688769 -1.82687e-009 -2.24022e-010 2.27001e-009 -3.16261e-009 -3.92838e-010 3.92721e-009 -1.82687e-009 -2.24024e-010 2.27001e-009 7.73091 5.47488 0.417314 -1.82687e-009 -2.24022e-010 2.27002e-009 2.90554 0.965183 0.102902 -1.82686e-009 -2.24024e-010 2.27001e-009 10.2786 0.731801 0.0259123 -1.82687e-009 -2.24024e-010 2.27002e-009 2.22167 -0.733487 -0.20892 1.31319e-013 2.96484e-013 1.72006e-013 -73.4542 19.5354 3.88605 12.2645 -6.14979 -21.4792 0.262926 16.2718 -2.33523 1.62524e-010 -2.38428e-010 -3.25723e-009 2.32027e-010 -4.02581e-010 -5.63182e-009 1.62522e-010 -2.38426e-010 -3.25722e-009 -7.73091 5.47488 -0.417314 1.62529e-010 -2.38433e-010 -3.25723e-009 -2.90554 0.965183 -0.102902 1.62517e-010 -2.38428e-010 -3.25722e-009 -10.2786 0.731801 -0.0259123 1.62525e-010 -2.38429e-010 -3.25722e-009 -2.22167 -0.733487 0.20892 -2.03217e-016 0 -3.88251e-019 -4.07743 -13.8008 -1.48387 -0.00681934 21.9853 0.377667 -3.43271 -14.3521 -10.1051 2.03217e-016 0 3.88251e-019 -0.546206 -13.3675 0.366537 0.095959 23.1633 -0.396346 1.21931 -15.9912 2.28155 
143.199 83.9588 12.0126 2.8076 -0.899011 -85.0078 -1.76465 -0.376891 12.2351 0.256477 -5.31778 3.57982 -3.80757 13.5477 15.5477 10.2071 -22.9153 33.0073 -0 0 0 -0 0 0 1.44746e-013 3.25411e-013 1.84572e-013 89.9865 17.9752 -12.6996 -16.974 -9.62451 31.7569 -0.0373241 -5.50582 -0.776207 -1.96044e-009 -1.42772e-010 2.48476e-009 -3.39386e-009 -2.52628e-010 4.29838e-009 -1.96044e-009 -1.42775e-010 2.48476e-009 7.73091 5.47488 0.417314 -1.96044e-009 -1.42772e-010 2.48476e-009 2.90554 0.965183 0.102902 -1.96043e-009 -1.42775e-010 2.48476e-009 10.2786 0.731801 0.0259123 -1.96044e-009 -1.42774e-010 2.48477e-009 2.22167 -0.733487 -0.20892 1.44694e-013 3.25409e-013 1.84323e-013 -90.0178 24.297 4.73301 14.443 -7.31746 -26.4497 0.496063 19.6091 -2.86997 2.6865e-010 -3.20495e-010 -3.61329e-009 4.10013e-010 -5.44365e-010 -6.24881e-009 2.68649e-010 -3.20494e-010 -3.61329e-009 -7.73091 5.47488 -0.417314 2.68657e-010 -3.20501e-010 -3.61331e-009 -2.90554 0.965183 -0.102902 2.68644e-010 -3.20495e-010 -3.61329e-009 -10.2786 0.731801 -0.0259123 2.68653e-010 -3.20495e-010 -3.6133e-009 -2.22167 -0.733487 0.20892 -2.03217e-016 0 -3.88251e-019 -5.26221 -15.4685 -1.87246 -0.0367568 25.651 0.463568 -4.84969 -17.4968 -12.6212 2.03217e-016 0 3.88251e-019 -0.684442 -15.9108 0.362739 0.178162 28.7274 -0.524648 1.58446 -20.352 2.78912 
143.167 83.9596 11.9562 3.01464 0.0843629 -90.5191 -1.88814 -0.457154 13.3669 0.385289 -5.59033 3.91448 -4.1392 14.4821 16.7484 11.5584 -23.8377 35.6523 -0 0 0 -0 0 0 1.17401e-013 2.60052e-013 1.36939e-013 96.3479 16.7571 -13.5581 -17.473 -9.76851 33.3423 -0.0262259 -4.87269 -0.686265 -1.46704e-009 1.20879e-010 1.99771e-009 -2.53971e-009 2.04901e-010 3.455e-009 -1.46704e-009 1.20876e-010 1.99771e-009 7.73091 5.47488 0.417314 -1.46704e-009 1.20878e-010 1.99772e-009 2.90554 0.965183 0.102902 -1.46703e-009 1.20876e-010 1.99771e-009 10.2786 0.731801 0.0259123 -1.46705e-009 1.20877e-010 1.99772e-009 2.22167 -0.733487 -0.20892 1.17348e-013 2.60049e-013 1.36684e-013 -96.697 27.1189 4.81102 15.4089 -7.87821 -28.7699 0.582827 20.546 -3.02785 4.52925e-010 -4.04967e-010 -3.00777e-009 7.37295e-010 -6.94514e-010 -5.20513e-009 4.52924e-010 -4.04968e-010 -3.00776e-009 -7.73091 5.47488 -0.417314 4.52931e-010 -4.04973e-010 -3.00778e-009 -2.90554 0.965183 -0.102902 4.52919e-010 -4.04968e-010 -3.00776e-009 -10.2786 0.731801 -0.0259123 4.52929e-010 -4.04968e-010 -3.00777e-009 -2.22167 -0.733487 0.20892 -2.03217e-016 0 -3.88251e-019 -5.62174 -15.986 -2.17373 -0.0492928 26.9963 0.498277 -5.51095 -18.6233 -13.7627 2.03217e-016 0 3.88251e-019 -0.630724 -16.9635 0.207579 0.219473 30.9691 -0.579598 1.67701 -22.0507 2.83959 
143.118 83.9605 11.9029 2.96913 -0.0780041 -89.3321 -1.75211 -0.532546 13.6646 0.540822 -5.40557 4.00811 -3.75472 14.4703 16.6791 10.7588 -23.6167 35.2931 -0 0 0 -0 0 0 6.12023e-014 1.27951e-013 4.68324e-014 95.2269 13.1294 -13.3054 -16.9423 -9.30061 32.0697 -0.00703615 -3.35075 -0.471036 -5.29292e-010 5.14792e-010 1.01272e-009 -9.16299e-010 8.89039e-010 1.74987e-009 -5.29288e-010 5.14789e-010 1.01272e-009 7.73091 5.47488 0.417314 -5.29291e-010 5.14791e-010 1.01272e-009 2.90554 0.965183 0.102902 -5.2928e-010 5.14789e-010 1.01272e-009 10.2786 0.731801 0.0259123 -5.293e-010 5.14791e-010 1.01273e-009 2.22167 -0.733487 -0.20892 6.11661e-014 1.27948e-013 4.65746e-014 -96.2122 28.5593 4.28443 15.6174 -8.08798 -29.1801 0.533916 19.7692 -2.90207 6.92155e-010 -4.91189e-010 -1.72061e-009 1.16965e-009 -8.50665e-010 -2.98428e-009 6.92155e-010 -4.91191e-010 -1.7206e-009 -7.73091 5.47488 -0.417314 6.9216e-010 -4.91194e-010 -1.72062e-009 -2.90554 0.965183 -0.102902 6.92149e-010 -4.91191e-010 -1.72061e-009 -10.2786 0.731801 -0.0259123 6.92161e-010 -4.91189e-010 -1.72062e-009 -2.22167 -0.733487 0.20892 -2.03217e-016 0 -3.88251e-019 -5.37825 -15.6826 -2.40773 -0.0431716 26.6847 0.4929 -5.48251 -18.3523 -13.8623 2.03217e-016 0 3.88251e-019 -0.440268 -16.9514 -0.0560535 0.216759 30.8376 -0.572878 1.53392 -21.8493 2.54177 
143.079 83.9581 11.8298 2.82491 -0.297852 -85.4034 -1.53347 -0.614952 13.6262 0.689584 -5.04355 4.0037 -3.11251 14.0923 16.0853 9.18531 -22.9826 33.7329 -0 0 0 -0 0 0 1.84264e-015 -1.04762e-014 -4.83396e-014 91.2512 8.71348 -12.7297 -15.9715 -8.56842 29.7241 0.00188091 -1.57684 -0.221408 4.69445e-010 9.60002e-010 -5.9332e-011 8.12624e-010 1.66222e-009 -1.06028e-010 4.6945e-010 9.59999e-010 -5.9342e-011 7.73091 5.47488 0.417314 4.69446e-010 9.6e-010 -5.93412e-011 2.90554 0.965183 0.102902 4.69458e-010 9.59999e-010 -5.93406e-011 10.2786 0.731801 0.0259123 4.69436e-010 9.60001e-010 -5.9333e-011 2.22167 -0.733487 -0.20892 1.82726e-015 -1.04807e-014 -4.85963e-014 -92.8244 29.3511 3.53155 15.5308 -8.16494 -28.8071 0.43768 18.2728 -2.66188 9.24318e-010 -5.79132e-010 -3.36487e-010 1.59132e-009 -1.01006e-009 -5.95649e-010 9.24319e-010 -5.79137e-010 -3.36478e-010 -7.73091 5.47488 -0.417314 9.24321e-010 -5.79137e-010 -3.36487e-010 -2.90554 0.965183 -0.102902 9.24313e-010 -5.79136e-010 -3.3649e-010 -10.2786 0.731801 -0.0259123 9.24326e-010 -5.79133e-010 -3.36502e-010 -2.22167 -0.733487 0.20892 -2.03217e-016 0 -3.88251e-019 -4.90235 -15.0597 -2.59682 -0.0299669 25.7183 0.472356 -5.19203 -17.5395 -13.5851 2.03217e-016 0 3.88251e-019 -0.210668 -16.523 -0.36368 0.196302 29.754 -0.541189 1.30318 -20.8729 2.09611 
